<!DOCTYPE svg PUBLIC "-//W3C//DTD SVG 1.1//EN" "http://www.w3.org/Graphics/SVG/1.1/DTD/svg11.dtd">

<!-- Uploaded to: SVG Repo, www.svgrepo.com, Transformed by: SVG Repo Mixer Tools -->
<svg height="800px" width="800px" version="1.1" id="Layer_1" xmlns="http://www.w3.org/2000/svg" xmlns:xlink="http://www.w3.org/1999/xlink" viewBox="-51.2 -51.2 614.40 614.40" xml:space="preserve" fill="#000000">

<g id="SVGRepo_bgCarrier" stroke-width="0"/>

<g id="SVGRepo_tracerCarrier" stroke-linecap="round" stroke-linejoin="round" stroke="#ffffff" stroke-width="25.6"> <path style="fill:#bcc1fa;" d="M449.939,0H256H139.636C84.029,0,38.788,45.241,38.788,100.848v310.303 C38.788,466.759,84.029,512,139.636,512H256h193.939c12.853,0,23.273-10.42,23.273-23.273V23.273C473.212,10.42,462.792,0,449.939,0 z"/> <g> <circle style="fill:#FFFFFF;" cx="256" cy="201.697" r="69.818"/> <path style="fill:#FFFFFF;" d="M256,271.515c-59.982,0-108.606,48.621-108.606,108.606H256h108.606 C364.606,320.137,315.982,271.515,256,271.515z"/> </g> <path style="fill:#acb1f9;" d="M139.636,512H256V380.121H147.394c0-59.985,48.624-108.606,108.606-108.606 c-38.558,0-69.818-31.26-69.818-69.818c0-38.561,31.26-69.818,69.818-69.818V0H139.636C84.029,0,38.788,45.241,38.788,100.848 v310.303C38.788,466.759,84.029,512,139.636,512z"/> </g>

<g id="SVGRepo_iconCarrier"> <path style="fill:#bcc1fa;" d="M449.939,0H256H139.636C84.029,0,38.788,45.241,38.788,100.848v310.303 C38.788,466.759,84.029,512,139.636,512H256h193.939c12.853,0,23.273-10.42,23.273-23.273V23.273C473.212,10.42,462.792,0,449.939,0 z"/> <g> <circle style="fill:#FFFFFF;" cx="256" cy="201.697" r="69.818"/> <path style="fill:#FFFFFF;" d="M256,271.515c-59.982,0-108.606,48.621-108.606,108.606H256h108.606 C364.606,320.137,315.982,271.515,256,271.515z"/> </g> <path style="fill:#acb1f9;" d="M139.636,512H256V380.121H147.394c0-59.985,48.624-108.606,108.606-108.606 c-38.558,0-69.818-31.26-69.818-69.818c0-38.561,31.26-69.818,69.818-69.818V0H139.636C84.029,0,38.788,45.241,38.788,100.848 v310.303C38.788,466.759,84.029,512,139.636,512z"/> </g>

</svg>
